<svg width="17" height="17" viewBox="0 0 17 17" fill="none" xmlns="http://www.w3.org/2000/svg">
<path d="M0.741556 3.36083L3.00469 1.2331C3.28094 0.973133 3.65069 0.827148 4.04169 0.827148C4.4327 0.827148 4.80245 0.971134 5.0787 1.2331L7.51608 3.52281C7.79234 3.78278 7.94746 4.13273 7.94746 4.50069C7.94746 4.87064 7.79446 5.2166 7.51608 5.47857L5.61208 7.27234C6.04582 8.22339 6.66905 9.08751 7.44808 9.81802C8.22796 10.5559 9.13959 11.1379 10.1511 11.5498L12.0551 9.75603C12.3314 9.49606 12.7011 9.35008 13.0921 9.35008C13.285 9.34941 13.476 9.38497 13.6541 9.45468C13.8322 9.52439 13.9937 9.62683 14.1291 9.75603L16.5686 12.0457C16.8449 12.3057 17 12.6557 17 13.0236C17 13.3936 16.847 13.7395 16.5686 14.0015L14.3076 16.1292C13.8359 16.5732 13.1856 16.8271 12.5184 16.8271C12.3802 16.8271 12.2464 16.8171 12.1104 16.7951C9.29684 16.3592 6.50458 14.9494 4.24994 12.8296C1.99744 10.7059 0.501428 8.07824 0.033926 5.42857C-0.0999496 4.67667 0.167804 3.90276 0.741556 3.36083ZM1.54056 5.19061C1.95494 7.54831 3.30219 9.90001 5.33158 11.8098C7.36096 13.7195 9.85784 14.9874 12.3632 15.3773C12.6777 15.4273 13.0007 15.3273 13.2302 15.1134L15.4509 13.0236L15.5 13.8271L14.5 14.8271L12.0551 16.1292L9.5 14.5502C7.37499 16.3138 6.3799 12.7967 5.33158 11.8098C4.28325 10.8229 2.0112 9.63701 1.5 8.32715L1 3.82715L4.04382 1.82715L6.39833 3.95513L4.04382 2.28497L1.82318 4.3747C1.59368 4.59068 1.48743 4.89464 1.54056 5.19061Z" fill="#356987"/>
</svg>
