<svg width="111" height="56" viewBox="0 0 111 56" fill="none" xmlns="http://www.w3.org/2000/svg">
<path d="M97.3028 7.11054C99.0815 7.10551 100.843 7.44164 102.485 8.09915C104.126 8.75666 105.613 9.72228 106.86 10.9392C108.106 12.1561 109.086 13.5998 109.743 15.1853C110.399 16.7708 110.718 18.4662 110.681 20.1716C110.644 21.8771 110.251 23.5582 109.527 25.1161C108.802 26.674 107.76 28.0773 106.462 29.2433C105.164 30.4094 103.636 31.3147 101.967 31.9061C100.299 32.4974 98.5239 32.7629 96.7469 32.6868C95.7618 36.3517 93.5343 39.5987 90.4148 41.9171C87.2954 44.2355 83.4609 45.4938 79.5143 45.4941H66.173C61.4552 45.4941 56.9306 43.6967 53.5946 40.4975C50.2587 37.2982 48.3845 32.9591 48.3845 28.4347V4.97812C48.3845 4.41257 48.6188 3.87018 49.0358 3.47027C49.4528 3.07037 50.0184 2.8457 50.6081 2.8457H95.0792C95.669 2.8457 96.2345 3.07037 96.6515 3.47027C97.0685 3.87018 97.3028 4.41257 97.3028 4.97812V7.11054ZM97.3028 11.3754V28.4347C99.6617 28.4347 101.924 27.5361 103.592 25.9364C105.26 24.3368 106.197 22.1673 106.197 19.905C106.197 17.6428 105.26 15.4733 103.592 13.8737C101.924 12.274 99.6617 11.3754 97.3028 11.3754ZM52.8316 7.11054V28.4347C52.8316 31.828 54.2372 35.0824 56.7392 37.4818C59.2412 39.8812 62.6346 41.2292 66.173 41.2292H79.5143C83.0527 41.2292 86.4461 39.8812 88.9481 37.4818C91.4501 35.0824 92.8557 31.828 92.8557 28.4347V7.11054H52.8316Z" fill="#356987"/>
<path d="M14.1281 14.675C13.0481 14.675 12.2681 14.425 11.7881 13.925C11.3181 13.415 11.0831 12.59 11.0831 11.45V6.14L7.7981 14H7.3031L3.2831 5.84V14H2.5331V4.1H4.3631L7.9931 11.465L11.0681 4.1H13.0331V11.45C13.0331 12.39 13.1131 13.08 13.2731 13.52C13.4331 13.96 13.7181 14.22 14.1281 14.3V14.675ZM18.6159 10.04L15.9609 6.05C15.6609 5.62 15.3309 5.245 14.9709 4.925C14.6209 4.605 14.2859 4.43 13.9659 4.4V4.1H15.6009C16.1109 4.1 16.5709 4.26 16.9809 4.58C17.4009 4.9 17.7559 5.29 18.0459 5.75L20.0859 8.825L22.9959 4.1H23.9709L20.5659 9.635V14H18.6159V10.04Z" fill="#356987"/>
<path d="M6.9281 34.2229C5.8981 34.2229 5.0081 34.0029 4.2581 33.5629C3.5181 33.1129 2.9531 32.5029 2.5631 31.7329C2.1731 30.9629 1.9781 30.0929 1.9781 29.1229C1.9781 28.1229 2.1931 27.2129 2.6231 26.3929C3.0531 25.5629 3.6431 24.9129 4.3931 24.4429C5.1531 23.9629 5.9981 23.7229 6.9281 23.7229C7.8081 23.7229 8.5431 23.8379 9.1331 24.0679C9.7231 24.2879 10.1731 24.5779 10.4831 24.9379C10.6631 25.1679 10.7731 25.4529 10.8131 25.7929C10.8531 26.1329 10.8731 26.6079 10.8731 27.2179H10.4231C10.2331 26.2979 9.8831 25.5979 9.3731 25.1179C8.8631 24.6379 8.1981 24.3979 7.3781 24.3979C6.3581 24.3979 5.5531 24.7579 4.9631 25.4779C4.3731 26.1979 4.0781 27.4129 4.0781 29.1229C4.0781 30.3929 4.3481 31.4479 4.8881 32.2879C5.4281 33.1279 6.2581 33.5479 7.3781 33.5479C8.0781 33.5479 8.7181 33.3629 9.2981 32.9929C9.8881 32.6229 10.3631 32.0929 10.7231 31.4029L11.2481 31.8079C10.7681 32.6479 10.1881 33.2629 9.5081 33.6529C8.8281 34.0329 7.9681 34.2229 6.9281 34.2229ZM17.0338 34.0729C14.3338 34.0729 12.9838 32.5829 12.9838 29.6029V25.9729C12.9838 25.4629 12.9138 25.0879 12.7738 24.8479C12.6338 24.5979 12.3538 24.4729 11.9338 24.4729V24.0229H13.5838C13.9438 24.0229 14.2188 24.0829 14.4088 24.2029C14.5988 24.3229 14.7338 24.5229 14.8138 24.8029C14.8938 25.0729 14.9338 25.4629 14.9338 25.9729L14.9488 30.0529C14.9588 31.1129 15.1638 31.9379 15.5638 32.5279C15.9738 33.1079 16.5638 33.3979 17.3338 33.3979C18.3538 33.3979 19.0938 33.0979 19.5538 32.4979C20.0238 31.8879 20.2588 30.9229 20.2588 29.6029V24.0229H21.0088V29.6029C21.0088 31.0729 20.6988 32.1879 20.0788 32.9479C19.4588 33.6979 18.4438 34.0729 17.0338 34.0729ZM23.4438 25.9729C23.4438 25.4629 23.3738 25.0879 23.2338 24.8479C23.0938 24.5979 22.8138 24.4729 22.3938 24.4729H22.2438V24.0229H26.3688C27.3988 24.0229 28.3288 24.2279 29.1588 24.6379C29.9988 25.0379 30.4188 25.8379 30.4188 27.0379C30.4188 27.8179 30.1988 28.4229 29.7588 28.8529C29.3288 29.2829 28.8438 29.5679 28.3038 29.7079C27.7638 29.8479 27.2688 29.9179 26.8188 29.9179H25.3938V33.9229H23.4438V25.9729ZM26.2938 29.3179C26.8838 29.3179 27.3688 29.1379 27.7488 28.7779C28.1288 28.4179 28.3188 27.8129 28.3188 26.9629C28.3188 26.1229 28.1288 25.5229 27.7488 25.1629C27.3788 24.8029 26.9188 24.6229 26.3688 24.6229C26.0788 24.6229 25.8538 24.6429 25.6938 24.6829L25.3938 24.7279V29.3179H26.2938Z" fill="#356987"/>
<line x1="109.5" y1="54.1543" x2="1.5" y2="54.1543" stroke="#356987" stroke-width="3" stroke-linecap="round"/>
</svg>
