<svg width="28" height="28" viewBox="0 0 28 28" fill="none" xmlns="http://www.w3.org/2000/svg">
<path d="M12.7012 3.92745C14.386 3.92591 16.0333 4.4241 17.4349 5.35899C18.8365 6.29387 19.9293 7.62346 20.5751 9.17954C21.2209 10.7356 21.3907 12.4483 21.063 14.1009C20.7352 15.7534 19.9247 17.2717 18.7339 18.4636C17.5432 19.6554 16.0256 20.4673 14.3734 20.7966C12.7211 21.1258 11.0083 20.9576 9.45159 20.3132C7.89492 19.6689 6.56434 18.5773 5.62817 17.1765C4.69201 15.7758 4.19232 14.1289 4.19231 12.4441C4.20253 10.1898 5.10203 8.03071 6.69533 6.43595C8.28863 4.8412 10.4469 3.93973 12.7012 3.92745ZM12.7012 2.33301C10.7014 2.33301 8.74654 2.92601 7.08377 4.03704C5.42101 5.14806 4.12504 6.7272 3.35976 8.57476C2.59447 10.4223 2.39424 12.4553 2.78437 14.4167C3.17451 16.3781 4.1375 18.1797 5.55157 19.5938C6.96563 21.0078 8.76726 21.9708 10.7286 22.3609C12.69 22.7511 14.723 22.5509 16.5706 21.7856C18.4181 21.0203 19.9973 19.7243 21.1083 18.0615C22.2193 16.3988 22.8123 14.4439 22.8123 12.4441C22.8123 9.76249 21.747 7.19068 19.8508 5.29448C17.9546 3.39828 15.3828 2.33301 12.7012 2.33301Z" fill="#356987" fill-opacity="0.8"/>
<path d="M27.2222 25.8922L21.4899 20.1211L20.3855 21.2178L26.1177 26.9889C26.1897 27.0614 26.2753 27.119 26.3696 27.1585C26.4639 27.1979 26.565 27.2184 26.6672 27.2188C26.7694 27.2191 26.8707 27.1993 26.9652 27.1606C27.0598 27.1218 27.1458 27.0648 27.2183 26.9928C27.2908 26.9208 27.3484 26.8352 27.3879 26.7409C27.4273 26.6466 27.4478 26.5455 27.4482 26.4433C27.4485 26.3411 27.4287 26.2398 27.39 26.1453C27.3512 26.0507 27.2942 25.9647 27.2222 25.8922Z" fill="#356987" fill-opacity="0.8"/>
</svg>
